<svg xmlns="http://www.w3.org/2000/svg" width="800" height="800" viewBox="0 0 800 800">
  <g>
  <circle cx="148" cy="100" r="3" fill="#333"/>
  <circle cx="229" cy="100" r="3" fill="#333"/>
  <circle cx="310" cy="100" r="3" fill="#333"/>
  <circle cx="391" cy="100" r="3" fill="#333"/>
  <circle cx="472" cy="100" r="3" fill="#333"/>
  <circle cx="553" cy="100" r="3" fill="#333"/>
  <circle cx="634" cy="100" r="3" fill="#333"/>
  <circle cx="188.5" cy="170.15" r="3" fill="#333"/>
  <circle cx="269.5" cy="170.15" r="3" fill="#333"/>
  <circle cx="350.5" cy="170.15" r="3" fill="#333"/>
  <circle cx="431.5" cy="170.15" r="3" fill="#333"/>
  <circle cx="512.5" cy="170.15" r="3" fill="#333"/>
  <circle cx="593.5" cy="170.15" r="3" fill="#333"/>
  <circle cx="674.5" cy="170.15" r="3" fill="#333"/>
  <circle cx="148" cy="240.3" r="3" fill="#333"/>
  <circle cx="229" cy="240.3" r="3" fill="#333"/>
  <circle cx="310" cy="240.3" r="3" fill="#333"/>
  <circle cx="391" cy="240.3" r="3" fill="#333"/>
  <circle cx="472" cy="240.3" r="3" fill="#333"/>
  <circle cx="553" cy="240.3" r="3" fill="#333"/>
  <circle cx="634" cy="240.3" r="3" fill="#333"/>
  <circle cx="188.5" cy="310.44" r="3" fill="#333"/>
  <circle cx="269.5" cy="310.44" r="3" fill="#333"/>
  <circle cx="350.5" cy="310.44" r="3" fill="#333"/>
  <circle cx="431.5" cy="310.44" r="3" fill="#333"/>
  <circle cx="512.5" cy="310.44" r="3" fill="#333"/>
  <circle cx="593.5" cy="310.44" r="3" fill="#333"/>
  <circle cx="674.5" cy="310.44" r="3" fill="#333"/>
  <circle cx="148" cy="380.59" r="3" fill="#333"/>
  <circle cx="229" cy="380.59" r="3" fill="#333"/>
  <circle cx="310" cy="380.59" r="3" fill="#333"/>
  <circle cx="391" cy="380.59" r="3" fill="#333"/>
  <circle cx="472" cy="380.59" r="3" fill="#333"/>
  <circle cx="553" cy="380.59" r="3" fill="#333"/>
  <circle cx="634" cy="380.59" r="3" fill="#333"/>
  <circle cx="188.5" cy="450.74" r="3" fill="#333"/>
  <circle cx="269.5" cy="450.74" r="3" fill="#333"/>
  <circle cx="350.5" cy="450.74" r="3" fill="#333"/>
  <circle cx="431.5" cy="450.74" r="3" fill="#333"/>
  <circle cx="512.5" cy="450.74" r="3" fill="#333"/>
  <circle cx="593.5" cy="450.74" r="3" fill="#333"/>
  <circle cx="674.5" cy="450.74" r="3" fill="#333"/>
  <circle cx="148" cy="520.89" r="3" fill="#333"/>
  <circle cx="229" cy="520.89" r="3" fill="#333"/>
  <circle cx="310" cy="520.89" r="3" fill="#333"/>
  <circle cx="391" cy="520.89" r="3" fill="#333"/>
  <circle cx="472" cy="520.89" r="3" fill="#333"/>
  <circle cx="553" cy="520.89" r="3" fill="#333"/>
  <circle cx="634" cy="520.89" r="3" fill="#333"/>
</g>
</svg>