<svg xmlns="http://www.w3.org/2000/svg" width="800" height="800" viewBox="0 0 800 800">
  <g>
  <line x1="402" y1="767" x2="398.51" y2="585.03" stroke="#333" stroke-width="1.5"/>
  <g>
  <line x1="398.51" y1="585.03" x2="340.41" y2="488.72" stroke="#333" stroke-width="1.5"/>
  <g>
  <line x1="340.41" y1="488.72" x2="279.55" y2="455.12" stroke="#333" stroke-width="1.5"/>
  <g>
  <line x1="279.55" y1="455.12" x2="236.6" y2="455.94" stroke="#333" stroke-width="1.5"/>
  <g>
  <line x1="236.6" y1="455.94" x2="213.86" y2="469.66" stroke="#333" stroke-width="1.5"/>
  <g>
  <line x1="213.86" y1="469.66" x2="205.93" y2="484.03" stroke="#333" stroke-width="1.5"/>
  <g>
  <line x1="205.93" y1="484.03" x2="206.12" y2="494.17" stroke="#333" stroke-width="1.5"/>
</g>
  <g>
  <line x1="205.93" y1="484.03" x2="197.24" y2="489.26" stroke="#333" stroke-width="1.5"/>
</g>
</g>
  <g>
  <line x1="213.86" y1="469.66" x2="197.45" y2="469.97" stroke="#333" stroke-width="1.5"/>
  <g>
  <line x1="197.45" y1="469.97" x2="188.77" y2="475.21" stroke="#333" stroke-width="1.5"/>
</g>
  <g>
  <line x1="197.45" y1="469.97" x2="188.57" y2="465.07" stroke="#333" stroke-width="1.5"/>
</g>
</g>
</g>
  <g>
  <line x1="236.6" y1="455.94" x2="213.35" y2="443.11" stroke="#333" stroke-width="1.5"/>
  <g>
  <line x1="213.35" y1="443.11" x2="196.94" y2="443.42" stroke="#333" stroke-width="1.5"/>
  <g>
  <line x1="196.94" y1="443.42" x2="188.26" y2="448.66" stroke="#333" stroke-width="1.5"/>
</g>
  <g>
  <line x1="196.94" y1="443.42" x2="188.06" y2="438.52" stroke="#333" stroke-width="1.5"/>
</g>
</g>
  <g>
  <line x1="213.35" y1="443.11" x2="204.87" y2="429.06" stroke="#333" stroke-width="1.5"/>
  <g>
  <line x1="204.87" y1="429.06" x2="195.99" y2="424.16" stroke="#333" stroke-width="1.5"/>
</g>
  <g>
  <line x1="204.87" y1="429.06" x2="204.68" y2="418.92" stroke="#333" stroke-width="1.5"/>
</g>
</g>
</g>
</g>
  <g>
  <line x1="279.55" y1="455.12" x2="257.36" y2="418.33" stroke="#333" stroke-width="1.5"/>
  <g>
  <line x1="257.36" y1="418.33" x2="234.11" y2="405.5" stroke="#333" stroke-width="1.5"/>
  <g>
  <line x1="234.11" y1="405.5" x2="217.71" y2="405.81" stroke="#333" stroke-width="1.5"/>
  <g>
  <line x1="217.71" y1="405.81" x2="209.02" y2="411.05" stroke="#333" stroke-width="1.5"/>
</g>
  <g>
  <line x1="217.71" y1="405.81" x2="208.83" y2="400.91" stroke="#333" stroke-width="1.5"/>
</g>
</g>
  <g>
  <line x1="234.11" y1="405.5" x2="225.64" y2="391.44" stroke="#333" stroke-width="1.5"/>
  <g>
  <line x1="225.64" y1="391.44" x2="216.76" y2="386.54" stroke="#333" stroke-width="1.5"/>
</g>
  <g>
  <line x1="225.64" y1="391.44" x2="225.44" y2="381.3" stroke="#333" stroke-width="1.5"/>
</g>
</g>
</g>
  <g>
  <line x1="257.36" y1="418.33" x2="256.85" y2="391.78" stroke="#333" stroke-width="1.5"/>
  <g>
  <line x1="256.85" y1="391.78" x2="248.37" y2="377.73" stroke="#333" stroke-width="1.5"/>
  <g>
  <line x1="248.37" y1="377.73" x2="239.49" y2="372.83" stroke="#333" stroke-width="1.5"/>
</g>
  <g>
  <line x1="248.37" y1="377.73" x2="248.18" y2="367.59" stroke="#333" stroke-width="1.5"/>
</g>
</g>
  <g>
  <line x1="256.85" y1="391.78" x2="264.78" y2="377.41" stroke="#333" stroke-width="1.5"/>
  <g>
  <line x1="264.78" y1="377.41" x2="264.59" y2="367.27" stroke="#333" stroke-width="1.5"/>
</g>
  <g>
  <line x1="264.78" y1="377.41" x2="273.47" y2="372.18" stroke="#333" stroke-width="1.5"/>
</g>
</g>
</g>
</g>
</g>
  <g>
  <line x1="340.41" y1="488.72" x2="339.08" y2="419.21" stroke="#333" stroke-width="1.5"/>
  <g>
  <line x1="339.08" y1="419.21" x2="316.89" y2="382.42" stroke="#333" stroke-width="1.5"/>
  <g>
  <line x1="316.89" y1="382.42" x2="293.64" y2="369.59" stroke="#333" stroke-width="1.5"/>
  <g>
  <line x1="293.64" y1="369.59" x2="277.23" y2="369.9" stroke="#333" stroke-width="1.5"/>
  <g>
  <line x1="277.23" y1="369.9" x2="268.55" y2="375.14" stroke="#333" stroke-width="1.5"/>
</g>
  <g>
  <line x1="277.23" y1="369.9" x2="268.35" y2="365" stroke="#333" stroke-width="1.5"/>
</g>
</g>
  <g>
  <line x1="293.64" y1="369.59" x2="285.16" y2="355.54" stroke="#333" stroke-width="1.5"/>
  <g>
  <line x1="285.16" y1="355.54" x2="276.28" y2="350.64" stroke="#333" stroke-width="1.5"/>
</g>
  <g>
  <line x1="285.16" y1="355.54" x2="284.97" y2="345.4" stroke="#333" stroke-width="1.5"/>
</g>
</g>
</g>
  <g>
  <line x1="316.89" y1="382.42" x2="316.38" y2="355.87" stroke="#333" stroke-width="1.5"/>
  <g>
  <line x1="316.38" y1="355.87" x2="307.9" y2="341.82" stroke="#333" stroke-width="1.5"/>
  <g>
  <line x1="307.9" y1="341.82" x2="299.02" y2="336.92" stroke="#333" stroke-width="1.5"/>
</g>
  <g>
  <line x1="307.9" y1="341.82" x2="307.71" y2="331.68" stroke="#333" stroke-width="1.5"/>
</g>
</g>
  <g>
  <line x1="316.38" y1="355.87" x2="324.31" y2="341.51" stroke="#333" stroke-width="1.5"/>
  <g>
  <line x1="324.31" y1="341.51" x2="324.11" y2="331.37" stroke="#333" stroke-width="1.5"/>
</g>
  <g>
  <line x1="324.31" y1="341.51" x2="332.99" y2="336.27" stroke="#333" stroke-width="1.5"/>
</g>
</g>
</g>
</g>
  <g>
  <line x1="339.08" y1="419.21" x2="359.84" y2="381.6" stroke="#333" stroke-width="1.5"/>
  <g>
  <line x1="359.84" y1="381.6" x2="359.33" y2="355.05" stroke="#333" stroke-width="1.5"/>
  <g>
  <line x1="359.33" y1="355.05" x2="350.86" y2="341" stroke="#333" stroke-width="1.5"/>
  <g>
  <line x1="350.86" y1="341" x2="341.98" y2="336.1" stroke="#333" stroke-width="1.5"/>
</g>
  <g>
  <line x1="350.86" y1="341" x2="350.66" y2="330.86" stroke="#333" stroke-width="1.5"/>
</g>
</g>
  <g>
  <line x1="359.33" y1="355.05" x2="367.27" y2="340.68" stroke="#333" stroke-width="1.5"/>
  <g>
  <line x1="367.27" y1="340.68" x2="367.07" y2="330.54" stroke="#333" stroke-width="1.5"/>
</g>
  <g>
  <line x1="367.27" y1="340.68" x2="375.95" y2="335.44" stroke="#333" stroke-width="1.5"/>
</g>
</g>
</g>
  <g>
  <line x1="359.84" y1="381.6" x2="382.58" y2="367.88" stroke="#333" stroke-width="1.5"/>
  <g>
  <line x1="382.58" y1="367.88" x2="390.51" y2="353.52" stroke="#333" stroke-width="1.5"/>
  <g>
  <line x1="390.51" y1="353.52" x2="390.32" y2="343.38" stroke="#333" stroke-width="1.5"/>
</g>
  <g>
  <line x1="390.51" y1="353.52" x2="399.2" y2="348.28" stroke="#333" stroke-width="1.5"/>
</g>
</g>
  <g>
  <line x1="382.58" y1="367.88" x2="398.99" y2="367.57" stroke="#333" stroke-width="1.5"/>
  <g>
  <line x1="398.99" y1="367.57" x2="407.67" y2="362.33" stroke="#333" stroke-width="1.5"/>
</g>
  <g>
  <line x1="398.99" y1="367.57" x2="407.87" y2="372.47" stroke="#333" stroke-width="1.5"/>
</g>
</g>
</g>
</g>
</g>
</g>
  <g>
  <line x1="398.51" y1="585.03" x2="452.87" y2="486.56" stroke="#333" stroke-width="1.5"/>
  <g>
  <line x1="452.87" y1="486.56" x2="451.54" y2="417.06" stroke="#333" stroke-width="1.5"/>
  <g>
  <line x1="451.54" y1="417.06" x2="429.35" y2="380.27" stroke="#333" stroke-width="1.5"/>
  <g>
  <line x1="429.35" y1="380.27" x2="406.1" y2="367.43" stroke="#333" stroke-width="1.5"/>
  <g>
  <line x1="406.1" y1="367.43" x2="389.69" y2="367.75" stroke="#333" stroke-width="1.5"/>
  <g>
  <line x1="389.69" y1="367.75" x2="381.01" y2="372.99" stroke="#333" stroke-width="1.5"/>
</g>
  <g>
  <line x1="389.69" y1="367.75" x2="380.81" y2="362.85" stroke="#333" stroke-width="1.5"/>
</g>
</g>
  <g>
  <line x1="406.1" y1="367.43" x2="397.63" y2="353.38" stroke="#333" stroke-width="1.5"/>
  <g>
  <line x1="397.63" y1="353.38" x2="388.75" y2="348.48" stroke="#333" stroke-width="1.5"/>
</g>
  <g>
  <line x1="397.63" y1="353.38" x2="397.43" y2="343.24" stroke="#333" stroke-width="1.5"/>
</g>
</g>
</g>
  <g>
  <line x1="429.35" y1="380.27" x2="428.84" y2="353.72" stroke="#333" stroke-width="1.5"/>
  <g>
  <line x1="428.84" y1="353.72" x2="420.36" y2="339.67" stroke="#333" stroke-width="1.5"/>
  <g>
  <line x1="420.36" y1="339.67" x2="411.48" y2="334.76" stroke="#333" stroke-width="1.5"/>
</g>
  <g>
  <line x1="420.36" y1="339.67" x2="420.17" y2="329.52" stroke="#333" stroke-width="1.5"/>
</g>
</g>
  <g>
  <line x1="428.84" y1="353.72" x2="436.77" y2="339.35" stroke="#333" stroke-width="1.5"/>
  <g>
  <line x1="436.77" y1="339.35" x2="436.58" y2="329.21" stroke="#333" stroke-width="1.5"/>
</g>
  <g>
  <line x1="436.77" y1="339.35" x2="445.45" y2="334.11" stroke="#333" stroke-width="1.5"/>
</g>
</g>
</g>
</g>
  <g>
  <line x1="451.54" y1="417.06" x2="472.3" y2="379.44" stroke="#333" stroke-width="1.5"/>
  <g>
  <line x1="472.3" y1="379.44" x2="471.8" y2="352.89" stroke="#333" stroke-width="1.5"/>
  <g>
  <line x1="471.8" y1="352.89" x2="463.32" y2="338.84" stroke="#333" stroke-width="1.5"/>
  <g>
  <line x1="463.32" y1="338.84" x2="454.44" y2="333.94" stroke="#333" stroke-width="1.5"/>
</g>
  <g>
  <line x1="463.32" y1="338.84" x2="463.12" y2="328.7" stroke="#333" stroke-width="1.5"/>
</g>
</g>
  <g>
  <line x1="471.8" y1="352.89" x2="479.73" y2="338.53" stroke="#333" stroke-width="1.5"/>
  <g>
  <line x1="479.73" y1="338.53" x2="479.53" y2="328.39" stroke="#333" stroke-width="1.5"/>
</g>
  <g>
  <line x1="479.73" y1="338.53" x2="488.41" y2="333.29" stroke="#333" stroke-width="1.5"/>
</g>
</g>
</g>
  <g>
  <line x1="472.3" y1="379.44" x2="495.04" y2="365.73" stroke="#333" stroke-width="1.5"/>
  <g>
  <line x1="495.04" y1="365.73" x2="502.97" y2="351.36" stroke="#333" stroke-width="1.5"/>
  <g>
  <line x1="502.97" y1="351.36" x2="502.78" y2="341.22" stroke="#333" stroke-width="1.5"/>
</g>
  <g>
  <line x1="502.97" y1="351.36" x2="511.66" y2="346.12" stroke="#333" stroke-width="1.5"/>
</g>
</g>
  <g>
  <line x1="495.04" y1="365.73" x2="511.45" y2="365.41" stroke="#333" stroke-width="1.5"/>
  <g>
  <line x1="511.45" y1="365.41" x2="520.13" y2="360.17" stroke="#333" stroke-width="1.5"/>
</g>
  <g>
  <line x1="511.45" y1="365.41" x2="520.33" y2="370.31" stroke="#333" stroke-width="1.5"/>
</g>
</g>
</g>
</g>
</g>
  <g>
  <line x1="452.87" y1="486.56" x2="512.4" y2="450.65" stroke="#333" stroke-width="1.5"/>
  <g>
  <line x1="512.4" y1="450.65" x2="533.16" y2="413.04" stroke="#333" stroke-width="1.5"/>
  <g>
  <line x1="533.16" y1="413.04" x2="532.65" y2="386.49" stroke="#333" stroke-width="1.5"/>
  <g>
  <line x1="532.65" y1="386.49" x2="524.18" y2="372.44" stroke="#333" stroke-width="1.5"/>
  <g>
  <line x1="524.18" y1="372.44" x2="515.3" y2="367.54" stroke="#333" stroke-width="1.5"/>
</g>
  <g>
  <line x1="524.18" y1="372.44" x2="523.98" y2="362.3" stroke="#333" stroke-width="1.5"/>
</g>
</g>
  <g>
  <line x1="532.65" y1="386.49" x2="540.59" y2="372.12" stroke="#333" stroke-width="1.5"/>
  <g>
  <line x1="540.59" y1="372.12" x2="540.39" y2="361.98" stroke="#333" stroke-width="1.5"/>
</g>
  <g>
  <line x1="540.59" y1="372.12" x2="549.27" y2="366.89" stroke="#333" stroke-width="1.5"/>
</g>
</g>
</g>
  <g>
  <line x1="533.16" y1="413.04" x2="555.9" y2="399.32" stroke="#333" stroke-width="1.5"/>
  <g>
  <line x1="555.9" y1="399.32" x2="563.83" y2="384.96" stroke="#333" stroke-width="1.5"/>
  <g>
  <line x1="563.83" y1="384.96" x2="563.64" y2="374.82" stroke="#333" stroke-width="1.5"/>
</g>
  <g>
  <line x1="563.83" y1="384.96" x2="572.52" y2="379.72" stroke="#333" stroke-width="1.5"/>
</g>
</g>
  <g>
  <line x1="555.9" y1="399.32" x2="572.31" y2="399.01" stroke="#333" stroke-width="1.5"/>
  <g>
  <line x1="572.31" y1="399.01" x2="580.99" y2="393.77" stroke="#333" stroke-width="1.5"/>
</g>
  <g>
  <line x1="572.31" y1="399.01" x2="581.19" y2="403.91" stroke="#333" stroke-width="1.5"/>
</g>
</g>
</g>
</g>
  <g>
  <line x1="512.4" y1="450.65" x2="555.36" y2="449.83" stroke="#333" stroke-width="1.5"/>
  <g>
  <line x1="555.36" y1="449.83" x2="578.09" y2="436.11" stroke="#333" stroke-width="1.5"/>
  <g>
  <line x1="578.09" y1="436.11" x2="586.02" y2="421.75" stroke="#333" stroke-width="1.5"/>
  <g>
  <line x1="586.02" y1="421.75" x2="585.83" y2="411.61" stroke="#333" stroke-width="1.5"/>
</g>
  <g>
  <line x1="586.02" y1="421.75" x2="594.71" y2="416.51" stroke="#333" stroke-width="1.5"/>
</g>
</g>
  <g>
  <line x1="578.09" y1="436.11" x2="594.5" y2="435.8" stroke="#333" stroke-width="1.5"/>
  <g>
  <line x1="594.5" y1="435.8" x2="603.19" y2="430.56" stroke="#333" stroke-width="1.5"/>
</g>
  <g>
  <line x1="594.5" y1="435.8" x2="603.38" y2="440.7" stroke="#333" stroke-width="1.5"/>
</g>
</g>
</g>
  <g>
  <line x1="555.36" y1="449.83" x2="578.6" y2="462.66" stroke="#333" stroke-width="1.5"/>
  <g>
  <line x1="578.6" y1="462.66" x2="595.01" y2="462.35" stroke="#333" stroke-width="1.5"/>
  <g>
  <line x1="595.01" y1="462.35" x2="603.69" y2="457.11" stroke="#333" stroke-width="1.5"/>
</g>
  <g>
  <line x1="595.01" y1="462.35" x2="603.89" y2="467.25" stroke="#333" stroke-width="1.5"/>
</g>
</g>
  <g>
  <line x1="578.6" y1="462.66" x2="587.08" y2="476.72" stroke="#333" stroke-width="1.5"/>
  <g>
  <line x1="587.08" y1="476.72" x2="595.96" y2="481.62" stroke="#333" stroke-width="1.5"/>
</g>
  <g>
  <line x1="587.08" y1="476.72" x2="587.27" y2="486.86" stroke="#333" stroke-width="1.5"/>
</g>
</g>
</g>
</g>
</g>
</g>
</g>
</svg>