<svg xmlns="http://www.w3.org/2000/svg" width="2400" height="2000" viewBox="0 0 2400 2000">
  <defs>
    <marker id="arrow" viewBox="0 0 10 10" refX="8" refY="5" markerWidth="6" markerHeight="6" orient="auto-start-auto"><path d="M 0 0 L 10 5 L 0 10 z" fill="#666"/></marker>
  </defs>
  <rect x="0" y="0" width="2400" height="2000" fill="#fafafa"/>
  <text x="950" y="40" font-size="24" fill="#2c3e50" font-weight="bold">108D INVERSION CASCADE — The Generative Principle</text>
  <text x="970" y="65" font-size="12" fill="#777">Every dimension is the previous fused with its own mirror: Dₙ₊₁ = Dₙ ∪ Dₙ⁻¹</text>
  <text x="312.5" y="166" font-size="11" fill="#333" font-weight="bold">3D ∪ 3D⁻¹ = Hexagram Seed</text>
  <g>
  <line x1="400" y1="308.3667" x2="493.7906" y2="470.8167" stroke="#e74c3c" stroke-width="2.5"/>
  <circle cx="400" cy="308.3667" r="4" fill="#e74c3c" stroke="#333" stroke-width="0.8"/>
  <line x1="493.7906" y1="470.8167" x2="306.2094" y2="470.8167" stroke="#f39c12" stroke-width="2.5"/>
  <circle cx="493.7906" cy="470.8167" r="4" fill="#f39c12" stroke="#333" stroke-width="0.8"/>
  <line x1="306.2094" y1="470.8167" x2="400" y2="308.3667" stroke="#8e44ad" stroke-width="2.5"/>
  <circle cx="306.2094" cy="470.8167" r="4" fill="#8e44ad" stroke="#333" stroke-width="0.8"/>
  <line x1="400" y1="524.9667" x2="306.2094" y2="362.5167" stroke="#c0392b" stroke-width="2.5" stroke-dasharray="4,2"/>
  <circle cx="400" cy="524.9667" r="4" fill="#c0392b" stroke="#333" stroke-width="0.8"/>
  <line x1="306.2094" y1="362.5167" x2="493.7906" y2="362.5167" stroke="#d4ac0d" stroke-width="2.5" stroke-dasharray="4,2"/>
  <circle cx="306.2094" cy="362.5167" r="4" fill="#d4ac0d" stroke="#333" stroke-width="0.8"/>
  <line x1="493.7906" y1="362.5167" x2="400" y2="524.9667" stroke="#6c3483" stroke-width="2.5" stroke-dasharray="4,2"/>
  <circle cx="493.7906" cy="362.5167" r="4" fill="#6c3483" stroke="#333" stroke-width="0.8"/>
  <circle cx="400" cy="416.6667" r="3" fill="#333" stroke="#fff" stroke-width="1"/>
  <text x="392" y="284.3" font-size="13" fill="#e74c3c" font-weight="bold">3D</text>
  <text x="388" y="573.1" font-size="11" fill="#c0392b" font-weight="bold">3D⁻¹</text>
</g>
  <text x="1116" y="166" font-size="11" fill="#333" font-weight="bold">4D→6D: Möbius Half-Twist</text>
  <g>
  <polyline points="1305.6024,396.8846 1300.7738,395.4306 1295.3656,394.1009 1289.4025,392.9062 1282.9115,391.8571 1275.9217,390.9637 1268.4642,390.2354 1260.5721,389.6814 1252.2809,389.3101 1243.6277,389.1295 1234.6522,389.1469 1225.3959,389.3688 1215.9022,389.8012 1206.2166,390.4492 1196.3866,391.317 1186.4613,392.4079 1176.4918,393.7243 1166.5304,395.2675 1156.631,397.0375 1146.8488,399.0335 1137.2399,401.253 1127.8612,403.6925 1118.7698,406.3468 1110.0234,409.2097 1101.6791,412.2731 1093.7938,415.5276 1086.4233,418.9623 1079.6221,422.5646 1073.4429,426.3203 1067.9364,430.214 1063.1505,434.2284 1059.1301,438.3449 1055.9166,442.5436 1053.5473,446.803 1052.0553,451.1005 1051.4686,455.4124 1051.8103,459.7141 1053.0977,463.9797 1055.3422,468.183 1058.549,472.2971 1062.7168,476.2947 1067.8377,480.1484 1073.8967,483.8308 1080.872,487.3147 1088.7349,490.5733 1097.4494,493.5807 1106.9729,496.3117 1117.2557,498.7423 1128.2418,500.8498 1139.8688,502.6131 1152.0684,504.013 1164.7666,505.0321 1177.8845,505.6551 1191.3385,505.8694 1205.041,505.6644 1218.9012,505.0327 1232.8253,503.9692 1246.7179,502.472 1260.4821,500.5418 1274.0205,498.1825 1287.2362,495.4012 1300.0333,492.2076 1312.3177,488.6147 1323.9982,484.6384 1334.987,480.2972 1345.2008,475.6128 1354.5609,470.6092 1362.9945,465.3128 1370.4354,459.7525 1376.824,453.9593 1382.1085,447.9657 1386.245,441.8063 1389.1981,435.5166 1390.9412,429.1335 1391.4567,422.6944 1390.7364,416.2376 1388.7814,409.8012 1385.6021,403.4234 1381.2186,397.1419 1375.6598,390.9939 1368.9639,385.0153" stroke="#f39c12" stroke-width="1.2" fill="none" stroke-opacity="0.6"/>
  <polyline points="1326.8285,392.9084 1321.0091,390.0071 1314.4573,387.268 1307.2108,384.7088 1299.311,382.3463 1290.803,380.1964 1281.7353,378.2734 1272.1595,376.591 1262.1304,375.161 1251.7051,373.9941 1240.9435,373.0997 1229.9072,372.4853 1218.6599,372.1573 1207.2666,372.1202 1195.7935,372.3769 1184.3076,372.9287 1172.8762,373.7753 1161.5669,374.9144 1150.4469,376.3423 1139.5829,378.0534 1129.0404,380.0405 1118.8837,382.2946 1109.1751,384.8052 1099.9751,387.56 1091.3414,390.5452 1083.329,393.7457 1075.9898,397.1445 1069.3719,400.7237 1063.5197,404.4639 1058.4735,408.3445 1054.269,412.3437 1050.9371,416.4391 1048.5038,420.607 1046.9901,424.8234 1046.4112,429.0633 1046.7771,433.3017 1048.0918,437.5129 1050.3536,441.6713 1053.555,445.7512 1057.6825,449.7272 1062.7168,453.5741 1068.6327,457.2673 1075.3992,460.7828 1082.9798,464.0974 1091.3323,467.189 1100.4095,470.0366 1110.159,472.6204 1120.5237,474.9222 1131.4421,476.9252 1142.8487,478.6143 1154.6743,479.9764 1166.8464,481.0003 1179.2897,481.6766 1191.9265,481.9983 1204.6776,481.9603 1217.4621,481.56 1230.1985,480.7969 1242.8051,479.6729 1255.2004,478.1922 1267.304,476.3612 1279.0367,474.1887 1290.3215,471.6857 1301.0837,468.8655 1311.252,465.7432 1320.7584,462.3363 1329.5392,458.664 1337.535,454.7474 1344.6916,450.6091 1350.9601,446.2735 1356.2974,441.766 1360.6665,437.1137 1364.0367,432.3442 1366.384,427.4862 1367.6911,422.569 1367.9477,417.6223 1367.1505,412.6761 1365.3035,407.7605 1362.4174,402.905 1358.5101,398.1393 1353.6064,393.4922 1347.7378,388.9915" stroke="#f39c12" stroke-width="1.2" fill="none" stroke-opacity="0.6"/>
  <polyline points="1347.7378,388.9915 1340.9423,384.6646 1333.2641,380.5371 1324.7533,376.6338 1315.4657,372.9775 1305.4621,369.5898 1294.8083,366.49 1283.5739,363.6959 1271.8329,361.223 1259.662,359.0846 1247.1408,357.292 1234.3513,355.8538 1221.3766,354.7767 1208.301,354.0647 1195.2093,353.7195 1182.1859,353.7403 1169.3146,354.124 1156.6775,354.8652 1144.3551,355.956 1132.4254,357.3865 1120.9633,359.1446 1110.0402,361.2162 1099.7237,363.585 1090.0768,366.2334 1081.158,369.1416 1073.0205,372.2888 1065.712,375.6524 1059.2747,379.2089 1053.7447,382.9337 1049.1519,386.8013 1045.52,390.7857 1042.8663,394.8602 1041.2017,398.9979 1040.5308,403.1718 1040.8515,407.3551 1042.1556,411.5209 1044.4287,415.6431 1047.6504,419.6959 1051.7945,423.6543 1056.829,427.4942 1062.7168,431.1926 1069.4159,434.7277 1076.8794,438.0787 1085.0561,441.2267 1093.891,444.1538 1103.3254,446.8439 1113.2975,449.2828 1123.7429,451.4576 1134.5947,453.3576 1145.7842,454.9737 1157.2413,456.2986 1168.8951,457.3272 1180.6738,458.056 1192.5058,458.4835 1204.3196,458.61 1216.0444,458.4376 1227.6108,457.9705 1238.9506,457.2142 1249.9975,456.1762 1260.6877,454.8655 1270.9596,453.2928 1280.7546,451.4701 1290.0175,449.411 1298.6961,447.1301 1306.7422,444.6435 1314.1113,441.9682 1320.7632,439.1223 1326.6618,436.1249 1331.7755,432.9956 1336.0772,429.7548 1339.5446,426.4236 1342.1599,423.0233 1343.9104,419.5756 1344.788,416.1025 1344.7896,412.6259 1343.9168,409.1679 1342.176,405.7502 1339.5786,402.3945 1336.1405,399.1219 1331.8821,395.9531 1326.8285,392.9084" stroke="#f39c12" stroke-width="1.2" fill="none" stroke-opacity="0.6"/>
  <polyline points="1368.9639,385.0153 1361.1775,379.2411 1352.3558,373.7043 1342.5616,368.4364 1331.8652,363.4668 1320.3434,358.8225 1308.0793,354.528 1295.1613,350.6055 1281.6824,347.0738 1267.7394,343.9492 1253.4321,341.2447 1238.8626,338.9704 1224.1343,337.1329 1209.3511,335.7357 1194.6163,334.7794 1180.0322,334.2611 1165.699,334.175 1151.714,334.5121 1138.1711,335.2608 1125.1595,336.4065 1112.7638,337.9321 1101.0627,339.8183 1090.129,342.0434 1080.0285,344.5837 1070.8203,347.4138 1062.5557,350.5068 1055.2786,353.8347 1049.0246,357.3681 1043.8215,361.0773 1039.689,364.9318 1036.6384,368.901 1034.6732,372.9543 1033.789,377.0613 1033.9736,381.1923 1035.2075,385.3179 1037.4641,389.4102 1040.7102,393.442 1044.9063,397.3875 1050.0073,401.2225 1055.9625,404.9243 1062.7168,408.472 1070.211,411.8465 1078.3819,415.0307 1087.1638,418.0094 1096.4884,420.7695 1106.2854,423.2998 1116.4836,425.5915 1127.0109,427.6375 1137.795,429.4329 1148.7641,430.9748 1159.8473,432.2621 1170.9749,433.2954 1182.079,434.0775 1193.0939,434.6124 1203.9562,434.9058 1214.6053,434.9649 1224.9839,434.7981 1235.0377,434.4151 1244.7158,433.8266 1253.9711,433.0442 1262.7601,432.0803 1271.0429,430.9483 1278.7835,429.6617 1285.9499,428.2349 1292.5135,426.6825 1298.4497,425.0194 1303.7373,423.2606 1308.3588,421.4212 1312.3002,419.5165 1315.5506,417.5616 1318.1026,415.5715 1319.9517,413.5612 1321.0963,411.5452 1321.538,409.538 1321.2806,407.5538 1320.3309,405.6065 1318.6981,403.7095 1316.3938,401.8762 1313.4319,400.1193 1309.8287,398.4514 1305.6024,396.8846" stroke="#f39c12" stroke-width="1.2" fill="none" stroke-opacity="0.6"/>
  <circle cx="1309.5033" cy="416.6667" r="5" fill="#f1c40f" stroke="#c0392b" stroke-width="2"/>
  <text x="1317.5033" y="420.6667" font-size="8" fill="#c0392b">twist(π)</text>
  <circle cx="1200" cy="354.0933" r="6" fill="#e74c3c" stroke="#333" stroke-width="0.8"/>
  <text x="1194" y="369.0933" font-size="8" fill="#e74c3c" font-weight="bold">Su</text>
  <circle cx="1254.1901" cy="447.9533" r="6" fill="#f39c12" stroke="#333" stroke-width="0.8"/>
  <text x="1248.1901" y="462.9533" font-size="8" fill="#f39c12" font-weight="bold">Me</text>
  <circle cx="1145.8099" cy="447.9533" r="6" fill="#8e44ad" stroke="#333" stroke-width="0.8"/>
  <text x="1139.8099" y="462.9533" font-size="8" fill="#8e44ad" font-weight="bold">Sa</text>
  <text x="1196" y="255.2333" font-size="10" fill="#27ae60" font-weight="bold">χ+</text>
  <text x="1196" y="585.1" font-size="10" fill="#c0392b" font-weight="bold">χ-</text>
</g>
  <text x="1926.5" y="166" font-size="11" fill="#333" font-weight="bold">6D→8D: Wu Xing Fusion</text>
  <g>
  <line x1="2000" y1="248.2" x2="2160.2213" y2="364.6076" stroke="#27ae60" stroke-width="2"/>
  <line x1="2160.2213" y1="364.6076" x2="2099.0222" y2="552.9591" stroke="#27ae60" stroke-width="2"/>
  <line x1="2099.0222" y1="552.9591" x2="1900.9778" y2="552.9591" stroke="#27ae60" stroke-width="2"/>
  <line x1="1900.9778" y1="552.9591" x2="1839.7787" y2="364.6076" stroke="#27ae60" stroke-width="2"/>
  <line x1="1839.7787" y1="364.6076" x2="2000" y2="248.2" stroke="#27ae60" stroke-width="2"/>
  <line x1="2000" y1="248.2" x2="2099.0222" y2="552.9591" stroke="#c0392b" stroke-width="1.5" stroke-dasharray="4,2"/>
  <line x1="2160.2213" y1="364.6076" x2="1900.9778" y2="552.9591" stroke="#c0392b" stroke-width="1.5" stroke-dasharray="4,2"/>
  <line x1="2099.0222" y1="552.9591" x2="1839.7787" y2="364.6076" stroke="#c0392b" stroke-width="1.5" stroke-dasharray="4,2"/>
  <line x1="1900.9778" y1="552.9591" x2="2000" y2="248.2" stroke="#c0392b" stroke-width="1.5" stroke-dasharray="4,2"/>
  <line x1="1839.7787" y1="364.6076" x2="2160.2213" y2="364.6076" stroke="#c0392b" stroke-width="1.5" stroke-dasharray="4,2"/>
  <circle cx="2000" cy="248.2" r="8" fill="#e67e22" stroke="#333" stroke-width="1"/>
  <text x="1988" y="268.2" font-size="8" fill="#e67e22" font-weight="bold">Tiger</text>
  <text x="1990" y="278.2" font-size="7" fill="#777">(Wood)</text>
  <circle cx="2160.2213" cy="364.6076" r="8" fill="#95a5a6" stroke="#333" stroke-width="1"/>
  <text x="2148.2213" y="384.6076" font-size="8" fill="#95a5a6" font-weight="bold">Crane</text>
  <text x="2150.2213" y="394.6076" font-size="7" fill="#777">(Fire)</text>
  <circle cx="2099.0222" cy="552.9591" r="8" fill="#f1c40f" stroke="#333" stroke-width="1"/>
  <text x="2087.0222" y="572.9591" font-size="8" fill="#f1c40f" font-weight="bold">Leopard</text>
  <text x="2089.0222" y="582.9591" font-size="7" fill="#777">(Earth)</text>
  <circle cx="1900.9778" cy="552.9591" r="8" fill="#2ecc71" stroke="#333" stroke-width="1"/>
  <text x="1888.9778" y="572.9591" font-size="8" fill="#2ecc71" font-weight="bold">Snake</text>
  <text x="1890.9778" y="582.9591" font-size="7" fill="#777">(Metal)</text>
  <circle cx="1839.7787" cy="364.6076" r="8" fill="#e74c3c" stroke="#333" stroke-width="1"/>
  <text x="1827.7787" y="384.6076" font-size="8" fill="#e74c3c" font-weight="bold">Dragon</text>
  <text x="1829.7787" y="394.6076" font-size="7" fill="#777">(Water)</text>
  <text x="1975" y="411.6667" font-size="8" fill="#27ae60">gen→</text>
  <text x="2005" y="421.6667" font-size="8" fill="#c0392b">←dest</text>
</g>
  <text x="302" y="799.3333" font-size="11" fill="#333" font-weight="bold">8D→10D: Planetary Opposition</text>
  <g>
  <line x1="400" y1="898.38" x2="465.7855" y2="1186.6049" stroke="#DAA520" stroke-width="0.8" stroke-opacity="0.4"/>
  <line x1="518.5413" y1="955.4665" x2="334.2145" y2="1186.6049" stroke="#DAA520" stroke-width="0.8" stroke-opacity="0.4"/>
  <line x1="547.8186" y1="1083.7386" x2="252.1814" y2="1083.7386" stroke="#DAA520" stroke-width="0.8" stroke-opacity="0.4"/>
  <line x1="465.7855" y1="1186.6049" x2="281.4587" y2="955.4665" stroke="#DAA520" stroke-width="0.8" stroke-opacity="0.4"/>
  <line x1="334.2145" y1="1186.6049" x2="400" y2="898.38" stroke="#DAA520" stroke-width="0.8" stroke-opacity="0.4"/>
  <line x1="252.1814" y1="1083.7386" x2="518.5413" y2="955.4665" stroke="#DAA520" stroke-width="0.8" stroke-opacity="0.4"/>
  <line x1="281.4587" y1="955.4665" x2="547.8186" y2="1083.7386" stroke="#DAA520" stroke-width="0.8" stroke-opacity="0.4"/>
  <circle cx="400" cy="881.5333" r="7" fill="#c0c0c0" stroke="#333" stroke-width="1"/>
  <text x="390" y="899.5333" font-size="7" fill="#c0c0c0">Moon</text>
  <circle cx="400" cy="1134.2333" r="4" fill="none" stroke="#c0c0c0" stroke-width="1.5" stroke-dasharray="2,1"/>
  <line x1="400" y1="881.5333" x2="400" y2="1134.2333" stroke="#c0c0c0" stroke-width="0.5" stroke-dasharray="2,3" stroke-opacity="0.4"/>
  <circle cx="531.7125" cy="944.9628" r="7" fill="#a0a0a0" stroke="#333" stroke-width="1"/>
  <text x="521.7125" y="962.9628" font-size="7" fill="#a0a0a0">Mercury</text>
  <circle cx="334.1437" cy="1102.5186" r="4" fill="none" stroke="#a0a0a0" stroke-width="1.5" stroke-dasharray="2,1"/>
  <line x1="531.7125" y1="944.9628" x2="334.1437" y2="1102.5186" stroke="#a0a0a0" stroke-width="0.5" stroke-dasharray="2,3" stroke-opacity="0.4"/>
  <circle cx="564.2429" cy="1087.4874" r="7" fill="#d4a574" stroke="#333" stroke-width="1"/>
  <text x="554.2429" y="1105.4874" font-size="7" fill="#d4a574">Venus</text>
  <circle cx="317.8786" cy="1031.2563" r="4" fill="none" stroke="#d4a574" stroke-width="1.5" stroke-dasharray="2,1"/>
  <line x1="564.2429" y1="1087.4874" x2="317.8786" y2="1031.2563" stroke="#d4a574" stroke-width="0.5" stroke-dasharray="2,3" stroke-opacity="0.4"/>
  <circle cx="473.0949" cy="1201.7832" r="7" fill="#ffd700" stroke="#333" stroke-width="1"/>
  <text x="463.0949" y="1219.7832" font-size="7" fill="#ffd700">Sun</text>
  <circle cx="363.4525" cy="974.1084" r="4" fill="none" stroke="#ffd700" stroke-width="1.5" stroke-dasharray="2,1"/>
  <line x1="473.0949" y1="1201.7832" x2="363.4525" y2="974.1084" stroke="#ffd700" stroke-width="0.5" stroke-dasharray="2,3" stroke-opacity="0.4"/>
  <circle cx="326.9051" cy="1201.7832" r="7" fill="#ff4500" stroke="#333" stroke-width="1"/>
  <text x="316.9051" y="1219.7832" font-size="7" fill="#ff4500">Mars</text>
  <circle cx="436.5475" cy="974.1084" r="4" fill="none" stroke="#ff4500" stroke-width="1.5" stroke-dasharray="2,1"/>
  <line x1="326.9051" y1="1201.7832" x2="436.5475" y2="974.1084" stroke="#ff4500" stroke-width="0.5" stroke-dasharray="2,3" stroke-opacity="0.4"/>
  <circle cx="235.7571" cy="1087.4874" r="7" fill="#4169e1" stroke="#333" stroke-width="1"/>
  <text x="225.7571" y="1105.4874" font-size="7" fill="#4169e1">Jupiter</text>
  <circle cx="482.1214" cy="1031.2563" r="4" fill="none" stroke="#4169e1" stroke-width="1.5" stroke-dasharray="2,1"/>
  <line x1="235.7571" y1="1087.4874" x2="482.1214" y2="1031.2563" stroke="#4169e1" stroke-width="0.5" stroke-dasharray="2,3" stroke-opacity="0.4"/>
  <circle cx="268.2875" cy="944.9628" r="7" fill="#696969" stroke="#333" stroke-width="1"/>
  <text x="258.2875" y="962.9628" font-size="7" fill="#696969">Saturn</text>
  <circle cx="465.8563" cy="1102.5186" r="4" fill="none" stroke="#696969" stroke-width="1.5" stroke-dasharray="2,1"/>
  <line x1="268.2875" y1="944.9628" x2="465.8563" y2="1102.5186" stroke="#696969" stroke-width="0.5" stroke-dasharray="2,3" stroke-opacity="0.4"/>
</g>
  <text x="1112.5" y="799.3333" font-size="11" fill="#333" font-weight="bold">10D→12D: Matrix Transpose</text>
  <g>
  <rect x="1031.5333" y="965.7667" width="54.7517" height="54.7517" fill="#e74c3c" fill-opacity="0.6" stroke="#333" stroke-width="0.5"/>
  <text x="1034.5333" y="999.46" font-size="6" fill="#333">Su·Su</text>
  <rect x="1090.4967" y="965.7667" width="54.7517" height="54.7517" fill="#e98b6d" fill-opacity="0.6" stroke="#333" stroke-width="0.5"/>
  <text x="1093.4967" y="999.46" font-size="6" fill="#333">Su·Me</text>
  <rect x="1149.46" y="965.7667" width="54.7517" height="54.7517" fill="#c0392b" fill-opacity="0.6" stroke="#333" stroke-width="0.5"/>
  <text x="1152.46" y="999.46" font-size="6" fill="#333">Su·Sa</text>
  <rect x="1031.5333" y="1024.73" width="54.7517" height="54.7517" fill="#f39c12" fill-opacity="0.6" stroke="#333" stroke-width="0.5"/>
  <text x="1034.5333" y="1058.4233" font-size="6" fill="#333">Me·Su</text>
  <rect x="1090.4967" y="1024.73" width="54.7517" height="54.7517" fill="#f1c40f" fill-opacity="0.6" stroke="#333" stroke-width="0.5"/>
  <text x="1093.4967" y="1058.4233" font-size="6" fill="#333">Me·Me</text>
  <rect x="1149.46" y="1024.73" width="54.7517" height="54.7517" fill="#d4ac0d" fill-opacity="0.6" stroke="#333" stroke-width="0.5"/>
  <text x="1152.46" y="1058.4233" font-size="6" fill="#333">Me·Sa</text>
  <rect x="1031.5333" y="1083.6933" width="54.7517" height="54.7517" fill="#8e44ad" fill-opacity="0.6" stroke="#333" stroke-width="0.5"/>
  <text x="1034.5333" y="1117.3867" font-size="6" fill="#333">Sa·Su</text>
  <rect x="1090.4967" y="1083.6933" width="54.7517" height="54.7517" fill="#9b59b6" fill-opacity="0.6" stroke="#333" stroke-width="0.5"/>
  <text x="1093.4967" y="1117.3867" font-size="6" fill="#333">Sa·Me</text>
  <rect x="1149.46" y="1083.6933" width="54.7517" height="54.7517" fill="#6c3483" fill-opacity="0.6" stroke="#333" stroke-width="0.5"/>
  <text x="1152.46" y="1117.3867" font-size="6" fill="#333">Sa·Sa</text>
  <rect x="1236.1" y="965.7667" width="54.7517" height="54.7517" fill="#e74c3c" fill-opacity="0.4" stroke="#333" stroke-width="0.5" stroke-dasharray="2,1"/>
  <text x="1239.1" y="999.46" font-size="6" fill="#555">Su·Su</text>
  <rect x="1295.0633" y="965.7667" width="54.7517" height="54.7517" fill="#f39c12" fill-opacity="0.4" stroke="#333" stroke-width="0.5" stroke-dasharray="2,1"/>
  <text x="1298.0633" y="999.46" font-size="6" fill="#555">Me·Su</text>
  <rect x="1354.0267" y="965.7667" width="54.7517" height="54.7517" fill="#8e44ad" fill-opacity="0.4" stroke="#333" stroke-width="0.5" stroke-dasharray="2,1"/>
  <text x="1357.0267" y="999.46" font-size="6" fill="#555">Sa·Su</text>
  <rect x="1236.1" y="1024.73" width="54.7517" height="54.7517" fill="#e98b6d" fill-opacity="0.4" stroke="#333" stroke-width="0.5" stroke-dasharray="2,1"/>
  <text x="1239.1" y="1058.4233" font-size="6" fill="#555">Su·Me</text>
  <rect x="1295.0633" y="1024.73" width="54.7517" height="54.7517" fill="#f1c40f" fill-opacity="0.4" stroke="#333" stroke-width="0.5" stroke-dasharray="2,1"/>
  <text x="1298.0633" y="1058.4233" font-size="6" fill="#555">Me·Me</text>
  <rect x="1354.0267" y="1024.73" width="54.7517" height="54.7517" fill="#9b59b6" fill-opacity="0.4" stroke="#333" stroke-width="0.5" stroke-dasharray="2,1"/>
  <text x="1357.0267" y="1058.4233" font-size="6" fill="#555">Sa·Me</text>
  <rect x="1236.1" y="1083.6933" width="54.7517" height="54.7517" fill="#c0392b" fill-opacity="0.4" stroke="#333" stroke-width="0.5" stroke-dasharray="2,1"/>
  <text x="1239.1" y="1117.3867" font-size="6" fill="#555">Su·Sa</text>
  <rect x="1295.0633" y="1083.6933" width="54.7517" height="54.7517" fill="#d4ac0d" fill-opacity="0.4" stroke="#333" stroke-width="0.5" stroke-dasharray="2,1"/>
  <text x="1298.0633" y="1117.3867" font-size="6" fill="#555">Me·Sa</text>
  <rect x="1354.0267" y="1083.6933" width="54.7517" height="54.7517" fill="#6c3483" fill-opacity="0.4" stroke="#333" stroke-width="0.5" stroke-dasharray="2,1"/>
  <text x="1357.0267" y="1117.3867" font-size="6" fill="#555">Sa·Sa</text>
  <text x="1192" y="1053" font-size="16" fill="#9b59b6" font-weight="bold">∪</text>
  <text x="1031.5333" y="955.7667" font-size="12" fill="#333" font-weight="bold">M</text>
  <text x="1362.45" y="955.7667" font-size="12" fill="#555" font-weight="bold">Mᵀ</text>
  <circle cx="1200" cy="1117.3867" r="5" fill="#6c3483" stroke="#fff" stroke-width="1.5"/>
  <text x="1195" y="1120.3867" font-size="8" fill="#fff" font-weight="bold">Z*</text>
</g>
  <text x="1933.5" y="799.3333" font-size="11" fill="#333" font-weight="bold">12D→36D→108D: Crown</text>
  <g>
  <circle cx="2000" cy="1050" r="240.6667" stroke="#2c3e50" stroke-width="3" fill="#2c3e50" fill-opacity="0.02"/>
  <polygon points="2000,1050 2120.3333,841.5766 2154.6976,865.6386 2184.3614,895.3024 2208.4234,929.6667 2226.1527,967.6872 2237.0104,1008.2087 2240.6667,1050 2237.0104,1091.7913 2226.1527,1132.3128 2208.4234,1170.3333 2184.3614,1204.6976 2154.6976,1234.3614 2120.3333,1258.4234 2000,1050" fill="#3498db" fill-opacity="0.04" stroke="#3498db" stroke-width="0.5"/>
  <text x="2189.5667" y="1054" font-size="9" fill="#3498db" font-weight="bold">Surface</text>
  <polygon points="2000,1050 2120.3333,1258.4234 2082.3128,1276.1527 2041.7913,1287.0104 2000,1290.6667 1958.2087,1287.0104 1917.6872,1276.1527 1879.6667,1258.4234 1845.3024,1234.3614 1815.6386,1204.6976 1791.5766,1170.3333 1773.8473,1132.3128 1762.9896,1091.7913 1759.3333,1050 2000,1050" fill="#9b59b6" fill-opacity="0.04" stroke="#9b59b6" stroke-width="0.5"/>
  <text x="1882.7167" y="1231.1599" font-size="9" fill="#9b59b6" font-weight="bold">Mid</text>
  <polygon points="2000,1050 1759.3333,1050 1762.9896,1008.2087 1773.8473,967.6872 1791.5766,929.6667 1815.6386,895.3024 1845.3024,865.6386 1879.6667,841.5766 1917.6872,823.8473 1958.2087,812.9896 2000,809.3333 2041.7913,812.9896 2082.3128,823.8473 2120.3333,841.5766 2000,1050" fill="#2c3e50" fill-opacity="0.04" stroke="#2c3e50" stroke-width="0.5"/>
  <text x="1882.7167" y="876.8401" font-size="9" fill="#2c3e50" font-weight="bold">Deep</text>
  <circle cx="2000" cy="1050" r="148.7402" stroke="#8e44ad" stroke-width="2" fill="#8e44ad" fill-opacity="0.03"/>
  <circle cx="2037.185" cy="1050" r="89.2441" stroke="#e74c3c" stroke-width="1.5" fill="#e74c3c" fill-opacity="0.05"/>
  <circle cx="2104.1181" cy="1050" r="2" fill="#e74c3c" stroke="none" fill-opacity="0.5"/>
  <circle cx="2095.1508" cy="1083.4665" r="2" fill="#e74c3c" stroke="none" fill-opacity="0.5"/>
  <circle cx="2070.6516" cy="1107.9657" r="2" fill="#e74c3c" stroke="none" fill-opacity="0.5"/>
  <circle cx="2037.185" cy="1116.9331" r="2" fill="#e74c3c" stroke="none" fill-opacity="0.5"/>
  <circle cx="2003.7185" cy="1107.9657" r="2" fill="#e74c3c" stroke="none" fill-opacity="0.5"/>
  <circle cx="1979.2193" cy="1083.4665" r="2" fill="#e74c3c" stroke="none" fill-opacity="0.5"/>
  <circle cx="1970.252" cy="1050" r="2" fill="#e74c3c" stroke="none" fill-opacity="0.5"/>
  <circle cx="1979.2193" cy="1016.5335" r="2" fill="#e74c3c" stroke="none" fill-opacity="0.5"/>
  <circle cx="2003.7185" cy="992.0343" r="2" fill="#e74c3c" stroke="none" fill-opacity="0.5"/>
  <circle cx="2037.185" cy="983.0669" r="2" fill="#e74c3c" stroke="none" fill-opacity="0.5"/>
  <circle cx="2070.6516" cy="992.0343" r="2" fill="#e74c3c" stroke="none" fill-opacity="0.5"/>
  <circle cx="2095.1508" cy="1016.5335" r="2" fill="#e74c3c" stroke="none" fill-opacity="0.5"/>
  <text x="2072.1533" y="1078.1757" font-size="9" fill="#e74c3c" font-weight="bold">Su</text>
  <circle cx="1981.4075" cy="1082.2032" r="89.2441" stroke="#f39c12" stroke-width="1.5" fill="#f39c12" fill-opacity="0.05"/>
  <circle cx="2048.3406" cy="1082.2032" r="2" fill="#f39c12" stroke="none" fill-opacity="0.5"/>
  <circle cx="2039.3732" cy="1115.6697" r="2" fill="#f39c12" stroke="none" fill-opacity="0.5"/>
  <circle cx="2014.874" cy="1140.1689" r="2" fill="#f39c12" stroke="none" fill-opacity="0.5"/>
  <circle cx="1981.4075" cy="1149.1363" r="2" fill="#f39c12" stroke="none" fill-opacity="0.5"/>
  <circle cx="1947.9409" cy="1140.1689" r="2" fill="#f39c12" stroke="none" fill-opacity="0.5"/>
  <circle cx="1923.4417" cy="1115.6697" r="2" fill="#f39c12" stroke="none" fill-opacity="0.5"/>
  <circle cx="1914.4744" cy="1082.2032" r="2" fill="#f39c12" stroke="none" fill-opacity="0.5"/>
  <circle cx="1923.4417" cy="1048.7367" r="2" fill="#f39c12" stroke="none" fill-opacity="0.5"/>
  <circle cx="1947.9409" cy="1024.2374" r="2" fill="#f39c12" stroke="none" fill-opacity="0.5"/>
  <circle cx="1981.4075" cy="1015.2701" r="2" fill="#f39c12" stroke="none" fill-opacity="0.5"/>
  <circle cx="2014.874" cy="1024.2374" r="2" fill="#f39c12" stroke="none" fill-opacity="0.5"/>
  <circle cx="2039.3732" cy="1048.7367" r="2" fill="#f39c12" stroke="none" fill-opacity="0.5"/>
  <text x="1933.9866" y="1109.5949" font-size="9" fill="#f39c12" font-weight="bold">Me</text>
  <circle cx="1981.4075" cy="1017.7968" r="89.2441" stroke="#8e44ad" stroke-width="1.5" fill="#8e44ad" fill-opacity="0.05"/>
  <circle cx="2048.3406" cy="1017.7968" r="2" fill="#8e44ad" stroke="none" fill-opacity="0.5"/>
  <circle cx="2039.3732" cy="1051.2633" r="2" fill="#8e44ad" stroke="none" fill-opacity="0.5"/>
  <circle cx="2014.874" cy="1075.7626" r="2" fill="#8e44ad" stroke="none" fill-opacity="0.5"/>
  <circle cx="1981.4075" cy="1084.7299" r="2" fill="#8e44ad" stroke="none" fill-opacity="0.5"/>
  <circle cx="1947.9409" cy="1075.7626" r="2" fill="#8e44ad" stroke="none" fill-opacity="0.5"/>
  <circle cx="1923.4417" cy="1051.2633" r="2" fill="#8e44ad" stroke="none" fill-opacity="0.5"/>
  <circle cx="1914.4744" cy="1017.7968" r="2" fill="#8e44ad" stroke="none" fill-opacity="0.5"/>
  <circle cx="1923.4417" cy="984.3303" r="2" fill="#8e44ad" stroke="none" fill-opacity="0.5"/>
  <circle cx="1947.9409" cy="959.8311" r="2" fill="#8e44ad" stroke="none" fill-opacity="0.5"/>
  <circle cx="1981.4075" cy="950.8637" r="2" fill="#8e44ad" stroke="none" fill-opacity="0.5"/>
  <circle cx="2014.874" cy="959.8311" r="2" fill="#8e44ad" stroke="none" fill-opacity="0.5"/>
  <circle cx="2039.3732" cy="984.3303" r="2" fill="#8e44ad" stroke="none" fill-opacity="0.5"/>
  <text x="1975.8601" y="974.2294" font-size="9" fill="#8e44ad" font-weight="bold">Sa</text>
  <circle cx="2000" cy="1050" r="91.9265" stroke="#9b59b6" stroke-width="1.5" fill="#9b59b6" fill-opacity="0.05"/>
  <circle cx="2000" cy="976.4588" r="4" fill="#e74c3c" stroke="#333" stroke-width="0.5"/>
  <line x1="2000" y1="976.4588" x2="2025.1526" y2="1119.1061" stroke="#9b59b6" stroke-width="0.4" stroke-opacity="0.3"/>
  <circle cx="2047.2714" cy="993.6642" r="4" fill="#e98b6d" stroke="#333" stroke-width="0.5"/>
  <line x1="2047.2714" y1="993.6642" x2="1974.8474" y2="1119.1061" stroke="#9b59b6" stroke-width="0.4" stroke-opacity="0.3"/>
  <circle cx="2072.4239" cy="1037.2297" r="4" fill="#c0392b" stroke="#333" stroke-width="0.5"/>
  <line x1="2072.4239" y1="1037.2297" x2="1936.3115" y2="1086.7706" stroke="#9b59b6" stroke-width="0.4" stroke-opacity="0.3"/>
  <circle cx="2063.6885" cy="1086.7706" r="4" fill="#f39c12" stroke="#333" stroke-width="0.5"/>
  <line x1="2063.6885" y1="1086.7706" x2="1927.5761" y2="1037.2297" stroke="#9b59b6" stroke-width="0.4" stroke-opacity="0.3"/>
  <circle cx="2025.1526" cy="1119.1061" r="4" fill="#f1c40f" stroke="#333" stroke-width="0.5"/>
  <line x1="2025.1526" y1="1119.1061" x2="1952.7286" y2="993.6642" stroke="#9b59b6" stroke-width="0.4" stroke-opacity="0.3"/>
  <circle cx="1974.8474" cy="1119.1061" r="4" fill="#d4ac0d" stroke="#333" stroke-width="0.5"/>
  <line x1="1974.8474" y1="1119.1061" x2="2000" y2="976.4588" stroke="#9b59b6" stroke-width="0.4" stroke-opacity="0.3"/>
  <circle cx="1936.3115" cy="1086.7706" r="4" fill="#8e44ad" stroke="#333" stroke-width="0.5"/>
  <line x1="1936.3115" y1="1086.7706" x2="2047.2714" y2="993.6642" stroke="#9b59b6" stroke-width="0.4" stroke-opacity="0.3"/>
  <circle cx="1927.5761" cy="1037.2297" r="4" fill="#9b59b6" stroke="#333" stroke-width="0.5"/>
  <line x1="1927.5761" y1="1037.2297" x2="2072.4239" y2="1037.2297" stroke="#9b59b6" stroke-width="0.4" stroke-opacity="0.3"/>
  <circle cx="1952.7286" cy="993.6642" r="4" fill="#6c3483" stroke="#333" stroke-width="0.5"/>
  <line x1="1952.7286" y1="993.6642" x2="2063.6885" y2="1086.7706" stroke="#9b59b6" stroke-width="0.4" stroke-opacity="0.3"/>
  <circle cx="2000" cy="1050" r="5" fill="#2c3e50" stroke="#fff" stroke-width="1.5"/>
  <text x="1995" y="1053" font-size="8" fill="#fff" font-weight="bold">Z*</text>
  <text x="2096.9265" y="1047" font-size="8" fill="#9b59b6">12D</text>
  <text x="2153.7402" y="1047" font-size="8" fill="#8e44ad">36D</text>
  <text x="2245.6667" y="1047" font-size="8" fill="#2c3e50">108D</text>
</g>
  <text x="305.5" y="1432.6667" font-size="11" fill="#333" font-weight="bold">w-operator Emergence Spiral</text>
  <g>
  <line x1="159.3333" y1="1683.3333" x2="640.6667" y2="1683.3333" stroke="#eee" stroke-width="0.5"/>
  <line x1="400" y1="1442.6667" x2="400" y2="1924" stroke="#eee" stroke-width="0.5"/>
  <path d="M 712.8667,1683.3333 L 556.4333,1526.9 L 400,1526.9 L 321.7833,1605.1167 L 321.7833,1683.3333 L 360.8917,1722.4417 L 400,1722.4417 L 419.5542,1702.8875 L 419.5542,1683.3333 L 409.7771,1673.5563 L 400,1673.5563 L 395.1115,1678.4448 L 395.1115,1683.3333 L 397.5557,1685.7776 L 400,1685.7776 L 401.2221,1684.5555 L 401.2221,1683.3333 L 400.6111,1682.7223 L 400,1682.7223 L 399.6945,1683.0278 L 399.6945,1683.3333 L 399.8472,1683.4861 L 400,1683.4861 L 400.0764,1683.4097 L 400.0764,1683.3333 L 400.0382,1683.2951 L 400,1683.2951 L 399.9809,1683.3142 L 399.9809,1683.3333 L 399.9905,1683.3429 L 400,1683.3429 L 400.0048,1683.3381 L 400.0048,1683.3333 L 400.0024,1683.3309 L 400,1683.3309 L 399.9988,1683.3321 L 399.9988,1683.3333 L 399.9994,1683.3339 L 400,1683.3339 L 400.0003,1683.3336 L 400.0003,1683.3333 L 400.0001,1683.3332 L 400,1683.3332 L 399.9999,1683.3333 L 399.9999,1683.3333 L 400,1683.3334 L 400,1683.3334 L 400,1683.3334 L 400,1683.3333 L 400,1683.3333" stroke="#9b59b6" stroke-width="1.5" fill="none" stroke-opacity="0.7"/>
  <circle cx="712.8667" cy="1683.3333" r="8" fill="#e74c3c" stroke="#333" stroke-width="1"/>
  <text x="723.8667" y="1680.3333" font-size="10" fill="#e74c3c" font-weight="bold">3D</text>
  <circle cx="556.4333" cy="1526.9" r="7.1213" fill="#e67e22" stroke="#333" stroke-width="1"/>
  <text x="566.5547" y="1523.9" font-size="10" fill="#e67e22" font-weight="bold">4D</text>
  <text x="629.65" y="1608.1167" font-size="8" fill="#999">⁻¹</text>
  <circle cx="400" cy="1526.9" r="6.5" fill="#f1c40f" stroke="#333" stroke-width="1"/>
  <text x="409.5" y="1523.9" font-size="10" fill="#f1c40f" font-weight="bold">6D</text>
  <text x="473.2167" y="1529.9" font-size="8" fill="#999">⁻¹</text>
  <circle cx="321.7833" cy="1683.3333" r="5.75" fill="#2ecc71" stroke="#333" stroke-width="1"/>
  <text x="330.5333" y="1680.3333" font-size="10" fill="#2ecc71" font-weight="bold">8D</text>
  <text x="316.7833" y="1647.225" font-size="8" fill="#999">⁻¹</text>
  <circle cx="400" cy="1722.4417" r="5.375" fill="#3498db" stroke="#333" stroke-width="1"/>
  <text x="408.375" y="1719.4417" font-size="10" fill="#3498db" font-weight="bold">10D</text>
  <text x="375.4458" y="1725.4417" font-size="8" fill="#999">⁻¹</text>
  <circle cx="409.7771" cy="1673.5563" r="5.1326" fill="#9b59b6" stroke="#333" stroke-width="1"/>
  <text x="417.9097" y="1670.5563" font-size="10" fill="#9b59b6" font-weight="bold">12D</text>
  <text x="409.6656" y="1681.4448" font-size="8" fill="#999">⁻¹</text>
  <circle cx="400" cy="1685.7776" r="5.0234" fill="#8e44ad" stroke="#333" stroke-width="1"/>
  <text x="408.0234" y="1682.7776" font-size="10" fill="#8e44ad" font-weight="bold">36D</text>
  <text x="393.7779" y="1688.7776" font-size="8" fill="#999">⁻¹</text>
  <circle cx="399.8472" cy="1683.4861" r="5.0021" fill="#2c3e50" stroke="#333" stroke-width="1"/>
  <text x="407.8493" y="1680.4861" font-size="10" fill="#2c3e50" font-weight="bold">108D</text>
  <text x="394.7708" y="1686.4097" font-size="8" fill="#999">⁻¹</text>
  <circle cx="400" cy="1683.3333" r="3" fill="#333" stroke="#fff" stroke-width="1"/>
  <text x="164.3333" y="1914" font-size="8" fill="#777">w = (1+i)/2   |w| = 1/√2   arg = π/4</text>
  <text x="164.3333" y="1924" font-size="9" fill="#9b59b6" font-weight="bold">Dₙ₊₁ = Dₙ ∪ Dₙ⁻¹</text>
</g>
  <text x="1130" y="1432.6667" font-size="11" fill="#333" font-weight="bold">Containment Counting</text>
  <g>
  <text x="995.4333" y="1478.7667" font-size="11" fill="#2c3e50" font-weight="bold">108D</text>
  <text x="1067.6333" y="1478.7667" font-size="9" fill="#555">×1</text>
  <rect x="1127.8" y="1446.6667" width="25.6863" height="36.1" fill="#2c3e50" fill-opacity="0.5" stroke="#2c3e50" stroke-width="0.5"/>
  <text x="995.4333" y="1538.9333" font-size="11" fill="#8e44ad" font-weight="bold">36D</text>
  <text x="1067.6333" y="1538.9333" font-size="9" fill="#555">×3</text>
  <rect x="1127.8" y="1506.8333" width="51.3726" height="36.1" fill="#8e44ad" fill-opacity="0.5" stroke="#8e44ad" stroke-width="0.5"/>
  <text x="995.4333" y="1599.1" font-size="11" fill="#9b59b6" font-weight="bold">12D</text>
  <text x="1067.6333" y="1599.1" font-size="9" fill="#555">×9</text>
  <rect x="1127.8" y="1567" width="85.3281" height="36.1" fill="#9b59b6" fill-opacity="0.5" stroke="#9b59b6" stroke-width="0.5"/>
  <text x="995.4333" y="1659.2667" font-size="11" fill="#3498db" font-weight="bold">10D</text>
  <text x="1067.6333" y="1659.2667" font-size="9" fill="#555">×81</text>
  <rect x="1127.8" y="1627.1667" width="163.302" height="36.1" fill="#3498db" fill-opacity="0.5" stroke="#3498db" stroke-width="0.5"/>
  <text x="995.4333" y="1719.4333" font-size="11" fill="#2ecc71" font-weight="bold">8D</text>
  <text x="1067.6333" y="1719.4333" font-size="9" fill="#555">×567</text>
  <rect x="1127.8" y="1687.3333" width="235.0232" height="36.1" fill="#2ecc71" fill-opacity="0.5" stroke="#2ecc71" stroke-width="0.5"/>
  <text x="995.4333" y="1779.6" font-size="11" fill="#f1c40f" font-weight="bold">6D</text>
  <text x="1067.6333" y="1779.6" font-size="9" fill="#555">×2,835</text>
  <rect x="1127.8" y="1747.5" width="294.6127" height="36.1" fill="#f1c40f" fill-opacity="0.5" stroke="#f1c40f" stroke-width="0.5"/>
  <text x="995.4333" y="1839.7667" font-size="11" fill="#e67e22" font-weight="bold">4D</text>
  <text x="1067.6333" y="1839.7667" font-size="9" fill="#555">×8,505</text>
  <rect x="1127.8" y="1807.6667" width="335.3159" height="36.1" fill="#e67e22" fill-opacity="0.5" stroke="#e67e22" stroke-width="0.5"/>
  <text x="995.4333" y="1899.9333" font-size="11" fill="#e74c3c" font-weight="bold">3D</text>
  <text x="1067.6333" y="1899.9333" font-size="9" fill="#555">×17,010</text>
  <rect x="1127.8" y="1867.8333" width="361" height="36.1" fill="#e74c3c" fill-opacity="0.5" stroke="#e74c3c" stroke-width="0.5"/>
  <text x="995.4333" y="1934" font-size="10" fill="#555" font-weight="bold">Bₙ₊₂ = Wₙ(Bₙ)</text>
</g>
  <circle cx="1769.3333" cy="1442.6667" r="5" fill="#e74c3c" stroke="#333" stroke-width="0.5"/>
  <text x="1779.3333" y="1446.6667" font-size="11" fill="#e74c3c" font-weight="bold">3D seed</text>
  <text x="1834.3333" y="1446.6667" font-size="9" fill="#777">→ 3D⁻¹ point mirror</text>
  <line x1="1769.3333" y1="1450.6667" x2="1769.3333" y2="1462.6667" stroke="#ccc" stroke-width="1"/>
  <circle cx="1769.3333" cy="1470.6667" r="5" fill="#e67e22" stroke="#333" stroke-width="0.5"/>
  <text x="1779.3333" y="1474.6667" font-size="11" fill="#e67e22" font-weight="bold">4D tess</text>
  <text x="1834.3333" y="1474.6667" font-size="9" fill="#777">→ 4D⁻¹ Möbius twist</text>
  <line x1="1769.3333" y1="1478.6667" x2="1769.3333" y2="1490.6667" stroke="#ccc" stroke-width="1"/>
  <circle cx="1769.3333" cy="1498.6667" r="5" fill="#f1c40f" stroke="#333" stroke-width="0.5"/>
  <text x="1779.3333" y="1502.6667" font-size="11" fill="#f1c40f" font-weight="bold">6D body</text>
  <text x="1834.3333" y="1502.6667" font-size="9" fill="#777">→ 6D⁻¹ Wu Xing destruct</text>
  <line x1="1769.3333" y1="1506.6667" x2="1769.3333" y2="1518.6667" stroke="#ccc" stroke-width="1"/>
  <circle cx="1769.3333" cy="1526.6667" r="5" fill="#2ecc71" stroke="#333" stroke-width="0.5"/>
  <text x="1779.3333" y="1530.6667" font-size="11" fill="#2ecc71" font-weight="bold">8D pent</text>
  <text x="1834.3333" y="1530.6667" font-size="9" fill="#777">→ 8D⁻¹ planet detriment</text>
  <line x1="1769.3333" y1="1534.6667" x2="1769.3333" y2="1546.6667" stroke="#ccc" stroke-width="1"/>
  <circle cx="1769.3333" cy="1554.6667" r="5" fill="#3498db" stroke="#333" stroke-width="0.5"/>
  <text x="1779.3333" y="1558.6667" font-size="11" fill="#3498db" font-weight="bold">10D hept</text>
  <text x="1834.3333" y="1558.6667" font-size="9" fill="#777">→ 10D⁻¹ matrix transpose</text>
  <line x1="1769.3333" y1="1562.6667" x2="1769.3333" y2="1574.6667" stroke="#ccc" stroke-width="1"/>
  <circle cx="1769.3333" cy="1582.6667" r="5" fill="#9b59b6" stroke="#333" stroke-width="0.5"/>
  <text x="1779.3333" y="1586.6667" font-size="11" fill="#9b59b6" font-weight="bold">12D crown</text>
  <text x="1834.3333" y="1586.6667" font-size="9" fill="#777">→ ×3 meta-wreath = 36D</text>
  <line x1="1769.3333" y1="1590.6667" x2="1769.3333" y2="1602.6667" stroke="#ccc" stroke-width="1"/>
  <circle cx="1769.3333" cy="1610.6667" r="5" fill="#8e44ad" stroke="#333" stroke-width="0.5"/>
  <text x="1779.3333" y="1614.6667" font-size="11" fill="#8e44ad" font-weight="bold">36D sigma</text>
  <text x="1834.3333" y="1614.6667" font-size="9" fill="#777">→ ×3 octave = 108D</text>
  <line x1="1769.3333" y1="1618.6667" x2="1769.3333" y2="1630.6667" stroke="#ccc" stroke-width="1"/>
  <circle cx="1769.3333" cy="1638.6667" r="5" fill="#2c3e50" stroke="#333" stroke-width="0.5"/>
  <text x="1779.3333" y="1642.6667" font-size="11" fill="#2c3e50" font-weight="bold">108D Xi</text>
  <text x="1834.3333" y="1642.6667" font-size="9" fill="#777">= organism closure (Z*)</text>
  <text x="50" y="1975" font-size="9" fill="#999">w = (1+i)/2</text>
  <text x="510" y="1975" font-size="9" fill="#999">|w| = 1/√2 (inversion compression)</text>
  <text x="970" y="1975" font-size="9" fill="#999">B₁₂ = 1890×B₃</text>
  <text x="1430" y="1975" font-size="9" fill="#999">B₁₀₈ = 3×3×9×7×5×3×2 = 17,010 seeds</text>
  <text x="1890" y="1975" font-size="9" fill="#999">Σ₆₀ × 4 SFCR × E8 = 103,680 roots</text>
</svg>