<svg xmlns="http://www.w3.org/2000/svg" width="800" height="800" viewBox="0 0 800 800">
  <g>
  <line x1="396" y1="392" x2="548" y2="392" stroke="#999" stroke-width="0.5"/>
  <line x1="396" y1="392" x2="472" y2="523.64" stroke="#999" stroke-width="0.5"/>
  <line x1="396" y1="392" x2="320" y2="523.64" stroke="#999" stroke-width="0.5"/>
  <line x1="396" y1="392" x2="244" y2="392" stroke="#999" stroke-width="0.5"/>
  <line x1="396" y1="392" x2="320" y2="260.36" stroke="#999" stroke-width="0.5"/>
  <line x1="396" y1="392" x2="472" y2="260.36" stroke="#999" stroke-width="0.5"/>
  <line x1="396" y1="392" x2="659.27" y2="544" stroke="#999" stroke-width="0.5"/>
  <line x1="396" y1="392" x2="396" y2="696" stroke="#999" stroke-width="0.5"/>
  <line x1="396" y1="392" x2="132.73" y2="544" stroke="#999" stroke-width="0.5"/>
  <line x1="396" y1="392" x2="132.73" y2="240" stroke="#999" stroke-width="0.5"/>
  <line x1="396" y1="392" x2="396" y2="88" stroke="#999" stroke-width="0.5"/>
  <line x1="396" y1="392" x2="659.27" y2="240" stroke="#999" stroke-width="0.5"/>
  <line x1="548" y1="392" x2="472" y2="523.64" stroke="#999" stroke-width="0.5"/>
  <line x1="548" y1="392" x2="320" y2="523.64" stroke="#999" stroke-width="0.5"/>
  <line x1="548" y1="392" x2="244" y2="392" stroke="#999" stroke-width="0.5"/>
  <line x1="548" y1="392" x2="320" y2="260.36" stroke="#999" stroke-width="0.5"/>
  <line x1="548" y1="392" x2="472" y2="260.36" stroke="#999" stroke-width="0.5"/>
  <line x1="548" y1="392" x2="659.27" y2="544" stroke="#999" stroke-width="0.5"/>
  <line x1="548" y1="392" x2="396" y2="696" stroke="#999" stroke-width="0.5"/>
  <line x1="548" y1="392" x2="132.73" y2="544" stroke="#999" stroke-width="0.5"/>
  <line x1="548" y1="392" x2="132.73" y2="240" stroke="#999" stroke-width="0.5"/>
  <line x1="548" y1="392" x2="396" y2="88" stroke="#999" stroke-width="0.5"/>
  <line x1="548" y1="392" x2="659.27" y2="240" stroke="#999" stroke-width="0.5"/>
  <line x1="472" y1="523.64" x2="320" y2="523.64" stroke="#999" stroke-width="0.5"/>
  <line x1="472" y1="523.64" x2="244" y2="392" stroke="#999" stroke-width="0.5"/>
  <line x1="472" y1="523.64" x2="320" y2="260.36" stroke="#999" stroke-width="0.5"/>
  <line x1="472" y1="523.64" x2="472" y2="260.36" stroke="#999" stroke-width="0.5"/>
  <line x1="472" y1="523.64" x2="659.27" y2="544" stroke="#999" stroke-width="0.5"/>
  <line x1="472" y1="523.64" x2="396" y2="696" stroke="#999" stroke-width="0.5"/>
  <line x1="472" y1="523.64" x2="132.73" y2="544" stroke="#999" stroke-width="0.5"/>
  <line x1="472" y1="523.64" x2="132.73" y2="240" stroke="#999" stroke-width="0.5"/>
  <line x1="472" y1="523.64" x2="396" y2="88" stroke="#999" stroke-width="0.5"/>
  <line x1="472" y1="523.64" x2="659.27" y2="240" stroke="#999" stroke-width="0.5"/>
  <line x1="320" y1="523.64" x2="244" y2="392" stroke="#999" stroke-width="0.5"/>
  <line x1="320" y1="523.64" x2="320" y2="260.36" stroke="#999" stroke-width="0.5"/>
  <line x1="320" y1="523.64" x2="472" y2="260.36" stroke="#999" stroke-width="0.5"/>
  <line x1="320" y1="523.64" x2="659.27" y2="544" stroke="#999" stroke-width="0.5"/>
  <line x1="320" y1="523.64" x2="396" y2="696" stroke="#999" stroke-width="0.5"/>
  <line x1="320" y1="523.64" x2="132.73" y2="544" stroke="#999" stroke-width="0.5"/>
  <line x1="320" y1="523.64" x2="132.73" y2="240" stroke="#999" stroke-width="0.5"/>
  <line x1="320" y1="523.64" x2="396" y2="88" stroke="#999" stroke-width="0.5"/>
  <line x1="320" y1="523.64" x2="659.27" y2="240" stroke="#999" stroke-width="0.5"/>
  <line x1="244" y1="392" x2="320" y2="260.36" stroke="#999" stroke-width="0.5"/>
  <line x1="244" y1="392" x2="472" y2="260.36" stroke="#999" stroke-width="0.5"/>
  <line x1="244" y1="392" x2="659.27" y2="544" stroke="#999" stroke-width="0.5"/>
  <line x1="244" y1="392" x2="396" y2="696" stroke="#999" stroke-width="0.5"/>
  <line x1="244" y1="392" x2="132.73" y2="544" stroke="#999" stroke-width="0.5"/>
  <line x1="244" y1="392" x2="132.73" y2="240" stroke="#999" stroke-width="0.5"/>
  <line x1="244" y1="392" x2="396" y2="88" stroke="#999" stroke-width="0.5"/>
  <line x1="244" y1="392" x2="659.27" y2="240" stroke="#999" stroke-width="0.5"/>
  <line x1="320" y1="260.36" x2="472" y2="260.36" stroke="#999" stroke-width="0.5"/>
  <line x1="320" y1="260.36" x2="659.27" y2="544" stroke="#999" stroke-width="0.5"/>
  <line x1="320" y1="260.36" x2="396" y2="696" stroke="#999" stroke-width="0.5"/>
  <line x1="320" y1="260.36" x2="132.73" y2="544" stroke="#999" stroke-width="0.5"/>
  <line x1="320" y1="260.36" x2="132.73" y2="240" stroke="#999" stroke-width="0.5"/>
  <line x1="320" y1="260.36" x2="396" y2="88" stroke="#999" stroke-width="0.5"/>
  <line x1="320" y1="260.36" x2="659.27" y2="240" stroke="#999" stroke-width="0.5"/>
  <line x1="472" y1="260.36" x2="659.27" y2="544" stroke="#999" stroke-width="0.5"/>
  <line x1="472" y1="260.36" x2="396" y2="696" stroke="#999" stroke-width="0.5"/>
  <line x1="472" y1="260.36" x2="132.73" y2="544" stroke="#999" stroke-width="0.5"/>
  <line x1="472" y1="260.36" x2="132.73" y2="240" stroke="#999" stroke-width="0.5"/>
  <line x1="472" y1="260.36" x2="396" y2="88" stroke="#999" stroke-width="0.5"/>
  <line x1="472" y1="260.36" x2="659.27" y2="240" stroke="#999" stroke-width="0.5"/>
  <line x1="659.27" y1="544" x2="396" y2="696" stroke="#999" stroke-width="0.5"/>
  <line x1="659.27" y1="544" x2="132.73" y2="544" stroke="#999" stroke-width="0.5"/>
  <line x1="659.27" y1="544" x2="132.73" y2="240" stroke="#999" stroke-width="0.5"/>
  <line x1="659.27" y1="544" x2="396" y2="88" stroke="#999" stroke-width="0.5"/>
  <line x1="659.27" y1="544" x2="659.27" y2="240" stroke="#999" stroke-width="0.5"/>
  <line x1="396" y1="696" x2="132.73" y2="544" stroke="#999" stroke-width="0.5"/>
  <line x1="396" y1="696" x2="132.73" y2="240" stroke="#999" stroke-width="0.5"/>
  <line x1="396" y1="696" x2="396" y2="88" stroke="#999" stroke-width="0.5"/>
  <line x1="396" y1="696" x2="659.27" y2="240" stroke="#999" stroke-width="0.5"/>
  <line x1="132.73" y1="544" x2="132.73" y2="240" stroke="#999" stroke-width="0.5"/>
  <line x1="132.73" y1="544" x2="396" y2="88" stroke="#999" stroke-width="0.5"/>
  <line x1="132.73" y1="544" x2="659.27" y2="240" stroke="#999" stroke-width="0.5"/>
  <line x1="132.73" y1="240" x2="396" y2="88" stroke="#999" stroke-width="0.5"/>
  <line x1="132.73" y1="240" x2="659.27" y2="240" stroke="#999" stroke-width="0.5"/>
  <line x1="396" y1="88" x2="659.27" y2="240" stroke="#999" stroke-width="0.5"/>
  <circle cx="396" cy="392" r="22.8" fill="none" stroke="#333" stroke-width="1"/>
  <circle cx="548" cy="392" r="22.8" fill="none" stroke="#333" stroke-width="1"/>
  <circle cx="472" cy="523.64" r="22.8" fill="none" stroke="#333" stroke-width="1"/>
  <circle cx="320" cy="523.64" r="22.8" fill="none" stroke="#333" stroke-width="1"/>
  <circle cx="244" cy="392" r="22.8" fill="none" stroke="#333" stroke-width="1"/>
  <circle cx="320" cy="260.36" r="22.8" fill="none" stroke="#333" stroke-width="1"/>
  <circle cx="472" cy="260.36" r="22.8" fill="none" stroke="#333" stroke-width="1"/>
  <circle cx="659.27" cy="544" r="22.8" fill="none" stroke="#333" stroke-width="1"/>
  <circle cx="396" cy="696" r="22.8" fill="none" stroke="#333" stroke-width="1"/>
  <circle cx="132.73" cy="544" r="22.8" fill="none" stroke="#333" stroke-width="1"/>
  <circle cx="132.73" cy="240" r="22.8" fill="none" stroke="#333" stroke-width="1"/>
  <circle cx="396" cy="88" r="22.8" fill="none" stroke="#333" stroke-width="1"/>
  <circle cx="659.27" cy="240" r="22.8" fill="none" stroke="#333" stroke-width="1"/>
</g>
</svg>